<?xml version="1.0" standalone="yes"?>
<svg xmlns="http://www.w3.org/2000/svg" width="512" height="512">
<path style="fill:#090a30; stroke:none;" d="M0 0L0 512L512 512L512 0L0 0z"/>
<path style="fill:#14ddf9; stroke:none;" d="M255 79L255 100L257 100L257 79L255 79z"/>
<path style="fill:#175282; stroke:none;" d="M322 96L323 97L322 96z"/>
<path style="fill:#0e9ef2; stroke:none;" d="M187 97L188 98L187 97z"/>
<path style="fill:#14ddf9; stroke:none;" d="M188 97L191 109L192 109C193.177 104.18 191.624 100.313 188 97z"/>
<path style="fill:#0e9ef2; stroke:none;" d="M189 97L190 98L189 97z"/>
<path style="fill:#175282; stroke:none;" d="M320 97L321 98L320 97z"/>
<path style="fill:#14ddf9; stroke:none;" d="M317 107L318 108L320 108L324 97C319.32 98.4733 318.218 102.55 317 107z"/>
<path style="fill:#175282; stroke:none;" d="M190 98L191 99L190 98M254 99L255 100L254 99M257 99L258 100L257 99M323 100L324 101L323 100z"/>
<path style="fill:#126de5; stroke:none;" d="M187 101L188 102L187 101z"/>
<path style="fill:#0e9ef2; stroke:none;" d="M191 101L192 102L191 101z"/>
<path style="fill:#126de5; stroke:none;" d="M318 102L319 103L318 102z"/>
<path style="fill:#0e9ef2; stroke:none;" d="M322 102L323 103L322 102z"/>
<path style="fill:#175282; stroke:none;" d="M192 103L193 104L192 103M317 104L318 105L317 104M321 105L322 106L321 105M189 106L190 107L189 106z"/>
<path style="fill:#0e9ef2; stroke:none;" d="M193 106L194 107L193 106z"/>
<path style="fill:#126de5; stroke:none;" d="M193 107L194 108L193 107M317 107L318 108L317 107z"/>
<path style="fill:#175282; stroke:none;" d="M320 107L321 108L320 107z"/>
<path style="fill:#0e9ef2; stroke:none;" d="M192 108L193 109L192 108M378 134L378 135L381 136L378 134z"/>
<path style="fill:#14ddf9; stroke:none;" d="M131 135L130 136L139 145L140 144L131 135M376 136L377 139L381 136L376 136z"/>
<path style="fill:#0e9ef2; stroke:none;" d="M375 137L373 139L371 141L372 144C375.106 142.491 378.593 139.861 375 137M379 137L380 138L379 137z"/>
<path style="fill:#175282; stroke:none;" d="M130 138L131 139L130 138z"/>
<path style="fill:#14ddf9; stroke:none;" d="M374 138L374 140L376 138L374 138z"/>
<path style="fill:#0e9ef2; stroke:none;" d="M378 138L379 139L378 138z"/>
<path style="fill:#175282; stroke:none;" d="M131 139L132 140L131 139z"/>
<path style="fill:#14ddf9; stroke:none;" d="M372 140L372 142L374 140L372 140M375 140L374 142L375 140z"/>
<path style="fill:#175282; stroke:none;" d="M374 143L375 144L374 143z"/>
<path style="fill:#0e9ef2; stroke:none;" d="M174 144L175 145L174 144z"/>
<path style="fill:#14ddf9; stroke:none;" d="M160 269L161 269C164.96 261.39 163 250.399 163 242L163 183C163 174.723 161.055 163.483 165.279 156.004C172.363 143.46 193.857 148 206 148L311 148C324.064 148 340.866 144.288 348 158L350 159C353.744 140.899 321.819 144 312 144L213 144C200.409 144 181.57 140.522 170.001 146.05C157.498 152.024 160 166.551 160 178L160 269z"/>
<path style="fill:#0e9ef2; stroke:none;" d="M336 144L337 145L336 144z"/>
<path style="fill:#126de5; stroke:none;" d="M337 144L338 145L337 144z"/>
<path style="fill:#0e9ef2; stroke:none;" d="M340 145L341 146L340 145M342 146L343 147L342 146M167 147L168 148L167 147M344 147L345 148L344 147M173 148L174 149L173 148z"/>
<path style="fill:#175282; stroke:none;" d="M174 148L175 149L174 148z"/>
<path style="fill:#126de5; stroke:none;" d="M338 148L339 149L338 148z"/>
<path style="fill:#0e9ef2; stroke:none;" d="M345 148L346 149L345 148z"/>
<path style="fill:#175282; stroke:none;" d="M171 149L172 150L171 149M340 149L341 150L340 149z"/>
<path style="fill:#0e9ef2; stroke:none;" d="M169 150L170 151L169 150z"/>
<path style="fill:#126de5; stroke:none;" d="M342 150L343 151L342 150z"/>
<path style="fill:#175282; stroke:none;" d="M168 151L169 152L168 151M343 151L344 152L343 151z"/>
<path style="fill:#0e9ef2; stroke:none;" d="M348 151L349 152L348 151z"/>
<path style="fill:#126de5; stroke:none;" d="M162 152L163 153L162 152z"/>
<path style="fill:#175282; stroke:none;" d="M349 152L350 153L349 152M166 153L167 154L166 153M345 153L346 154L345 153z"/>
<path style="fill:#0e9ef2; stroke:none;" d="M349 153L350 154L349 153M161 154L162 155L161 154M346 154L347 155L346 154M350 154L351 159L350 159L349 157C344.994 180.673 349 208.834 349 233C354.12 229.681 352 219.51 352 214L352 173C352 166.899 353.236 159.402 350 154M348 155L349 156L348 155z"/>
<path style="fill:#175282; stroke:none;" d="M160 156L161 157L160 156z"/>
<path style="fill:#0e9ef2; stroke:none;" d="M164 156L165 157L164 156M347 156L348 157L347 156z"/>
<path style="fill:#175282; stroke:none;" d="M351 156L352 157L351 156M159 160L159 191L160 191L159 160M163 160L164 161L163 160M348 160L349 161L348 160M352 160L352 232L353 232L353 183L352 160M196 170L197 171L196 170z"/>
<path style="fill:#0e9ef2; stroke:none;" d="M197 170L198 171L197 170z"/>
<path style="fill:#14ddf9; stroke:none;" d="M220 175C212.795 173.982 205.805 183.598 202 189L201 189C198.609 185.866 196.975 184.433 193 185C201.14 196.515 205.206 189.195 214 183C213.933 186.134 213.778 189.132 212.312 191.985C202.396 211.281 176.21 187.594 195.002 175.742C197.225 174.34 199.457 174.139 202 174L202 170C198.446 170.312 195.079 171.038 192.015 172.995C170.981 186.43 198.006 216.039 213.606 196.957C218.905 190.474 215.699 182.07 220 175z"/>
<path style="fill:#0e9ef2; stroke:none;" d="M194 171L195 172L194 171M202.333 171.667L202.667 172.333L202.333 171.667M192 172L193 173L192 172z"/>
<path style="fill:#175282; stroke:none;" d="M190 173L191 174L190 173z"/>
<path style="fill:#126de5; stroke:none;" d="M217 173L218 174L217 173z"/>
<path style="fill:#175282; stroke:none;" d="M218 173L219 174L218 173M189 174L190 175L189 174z"/>
<path style="fill:#0e9ef2; stroke:none;" d="M196 174L197 175L196 174z"/>
<path style="fill:#175282; stroke:none;" d="M219 174L220 175L219 174M188 175L189 176L188 175z"/>
<path style="fill:#0e9ef2; stroke:none;" d="M194 175L195 176L194 175M186 178L187 179L186 178z"/>
<path style="fill:#175282; stroke:none;" d="M217 178L218 179L217 178M216 179L217 180L216 179z"/>
<path style="fill:#0e9ef2; stroke:none;" d="M185 180L186 181L185 180M189 180L190 181L189 180M216 181L217 182L216 181M188 182L189 183L188 182z"/>
<path style="fill:#175282; stroke:none;" d="M184 183L185 184L184 183M188 183L189 184L188 183M195 183L196 184L195 183M212 183L214 185L212 183z"/>
<path style="fill:#0e9ef2; stroke:none;" d="M213 183L214 184L213 183z"/>
<path style="fill:#126de5; stroke:none;" d="M193 184L194 185L193 184z"/>
<path style="fill:#175282; stroke:none;" d="M211 184L212 185L211 184M217 184L218 185L217 184M210 185L211 186L210 185z"/>
<path style="fill:#126de5; stroke:none;" d="M217 185L218 186L217 185z"/>
<path style="fill:#175282; stroke:none;" d="M231 185L232 186L231 185z"/>
<path style="fill:#14ddf9; stroke:none;" d="M231 186L231 187L256 188L305 188C301.441 183.066 292.532 185 287 185C269.906 185 247.373 181.16 231 186z"/>
<path style="fill:#0e9ef2; stroke:none;" d="M304 185L305 188L233 188L233 189L293 189L326 188L326 186L304 185z"/>
<path style="fill:#126de5; stroke:none;" d="M193 186L194 187L193 186z"/>
<path style="fill:#0e9ef2; stroke:none;" d="M217 186L218 187L217 186M302 186L303 187L302 186M194 187L195 188L194 187z"/>
<path style="fill:#126de5; stroke:none;" d="M217 187L218 188L217 187z"/>
<path style="fill:#0e9ef2; stroke:none;" d="M231 187L232 188L231 187M195 188L196 189L195 188z"/>
<path style="fill:#175282; stroke:none;" d="M207 188L208 189L207 188M213 188L214 189L213 188M217 188L218 189L217 188z"/>
<path style="fill:#126de5; stroke:none;" d="M232 188L233 189L232 188z"/>
<path style="fill:#175282; stroke:none;" d="M324 188L325 189L324 188z"/>
<path style="fill:#0e9ef2; stroke:none;" d="M184 189L185 190L184 189M196 189L197 190L196 189z"/>
<path style="fill:#175282; stroke:none;" d="M206 189L207 190L206 189z"/>
<path style="fill:#126de5; stroke:none;" d="M213 189L214 190L213 189z"/>
<path style="fill:#175282; stroke:none;" d="M184 190L185 191L184 190z"/>
<path style="fill:#126de5; stroke:none;" d="M188 190L189 191L188 190z"/>
<path style="fill:#0e9ef2; stroke:none;" d="M197 190L198 191L197 190z"/>
<path style="fill:#175282; stroke:none;" d="M205 190L206 191L205 190z"/>
<path style="fill:#126de5; stroke:none;" d="M159 191L160 192L159 191z"/>
<path style="fill:#0e9ef2; stroke:none;" d="M198 191L199 192L198 191z"/>
<path style="fill:#175282; stroke:none;" d="M204 191L205 192L204 191z"/>
<path style="fill:#126de5; stroke:none;" d="M415 191L416 192L415 191z"/>
<path style="fill:#0e9ef2; stroke:none;" d="M408 197L419 193C414.886 190.397 410.344 193.178 408 197z"/>
<path style="fill:#175282; stroke:none;" d="M418 191L419 192L418 191z"/>
<path style="fill:#14ddf9; stroke:none;" d="M93 192C94.4878 196.755 98.4375 197.916 103 199L104 198L104 196L93 192z"/>
<path style="fill:#0e9ef2; stroke:none;" d="M95 192L96 193L95 192z"/>
<path style="fill:#175282; stroke:none;" d="M159 192L159 195L160 195L159 192z"/>
<path style="fill:#0e9ef2; stroke:none;" d="M199 192L200 193L199 192z"/>
<path style="fill:#175282; stroke:none;" d="M203 192L204 193L203 192z"/>
<path style="fill:#126de5; stroke:none;" d="M212 192L213 193L212 192M216 192L217 193L216 192z"/>
<path style="fill:#175282; stroke:none;" d="M412 192L413 193L412 192M92.3333 193.667L92.6667 194.333L92.3333 193.667M98 193L99 194L98 193M185 193L186 194L185 193M200 193L201 194L200 193z"/>
<path style="fill:#0e9ef2; stroke:none;" d="M201 193L202 194L201 193z"/>
<path style="fill:#175282; stroke:none;" d="M202 193L203 194L202 193z"/>
<path style="fill:#126de5; stroke:none;" d="M410 193L411 194L410 193M418 193L419 194L418 193z"/>
<path style="fill:#0e9ef2; stroke:none;" d="M100 194L101 195L100 194z"/>
<path style="fill:#126de5; stroke:none;" d="M190 194L191 195L190 194z"/>
<path style="fill:#0e9ef2; stroke:none;" d="M215 194L216 195L215 194z"/>
<path style="fill:#126de5; stroke:none;" d="M408.667 194.333L409.333 194.667L408.667 194.333M416 194L417 195L416 194z"/>
<path style="fill:#175282; stroke:none;" d="M417 194L418 195L417 194z"/>
<path style="fill:#0e9ef2; stroke:none;" d="M93 195L94 196L93 195z"/>
<path style="fill:#126de5; stroke:none;" d="M159.333 195.667L159.667 196.333L159.333 195.667z"/>
<path style="fill:#175282; stroke:none;" d="M186 195L187 196L186 195M191 195L192 196L191 195z"/>
<path style="fill:#0e9ef2; stroke:none;" d="M210 195L211 196L210 195z"/>
<path style="fill:#175282; stroke:none;" d="M407.333 195.667L407.667 196.333L407.333 195.667z"/>
<path style="fill:#126de5; stroke:none;" d="M414 195L415 196L414 195z"/>
<path style="fill:#175282; stroke:none;" d="M95 196L96 197L95 196M192 196L193 197L192 196z"/>
<path style="fill:#0e9ef2; stroke:none;" d="M209 196L210 197L209 196z"/>
<path style="fill:#175282; stroke:none;" d="M214 196L215 197L214 196z"/>
<path style="fill:#126de5; stroke:none;" d="M411 196L412 197L411 196z"/>
<path style="fill:#175282; stroke:none;" d="M412 196L413 197L412 196M159 197L159 359L160 359L160 245C160 231.485 164.206 209.407 159 197z"/>
<path style="fill:#0e9ef2; stroke:none;" d="M193 197L194 198L193 197M213 197L214 198L213 197z"/>
<path style="fill:#175282; stroke:none;" d="M408 197L409 198L408 197z"/>
<path style="fill:#126de5; stroke:none;" d="M409 197L410 198L409 197M100 198L101 199L100 198M103 198L104 199L103 198M195 198L196 199L195 198z"/>
<path style="fill:#0e9ef2; stroke:none;" d="M206 198L207 199L206 198M212 198L213 199L212 198z"/>
<path style="fill:#126de5; stroke:none;" d="M198 199L199 200L198 199z"/>
<path style="fill:#175282; stroke:none;" d="M199 199L200 200L199 199M202 199L203 200L202 199z"/>
<path style="fill:#0e9ef2; stroke:none;" d="M203 199L204 200L203 199M211 199L212 200L211 199M191 200L192 201L191 200z"/>
<path style="fill:#175282; stroke:none;" d="M210 200L211 201L210 200z"/>
<path style="fill:#0e9ef2; stroke:none;" d="M193 201L194 202L193 201M208 201L209 202L208 201M195 202L196 203L195 202z"/>
<path style="fill:#175282; stroke:none;" d="M206 202L207 203L206 202M199 203L199 204L203 204L199 203M198 221L199 222L198 221z"/>
<path style="fill:#126de5; stroke:none;" d="M199 221L200 222L199 221z"/>
<path style="fill:#0e9ef2; stroke:none;" d="M200 221L201 222L200 221z"/>
<path style="fill:#175282; stroke:none;" d="M201 221L202 222L201 221z"/>
<path style="fill:#0e9ef2; stroke:none;" d="M195 222L196 223L195 222z"/>
<path style="fill:#14ddf9; stroke:none;" d="M192 249C186.365 238.231 187.722 226.462 202 225L202 222C188.299 222.293 175.35 242.305 192 249z"/>
<path style="fill:#126de5; stroke:none;" d="M202 222L203 223L202 222z"/>
<path style="fill:#175282; stroke:none;" d="M192 223L193 224L192 223z"/>
<path style="fill:#0e9ef2; stroke:none;" d="M202 223L203 224L202 223M191 224L192 225L191 224z"/>
<path style="fill:#175282; stroke:none;" d="M202 224L203 225L202 224z"/>
<path style="fill:#0e9ef2; stroke:none;" d="M197 225L198 226L197 225z"/>
<path style="fill:#175282; stroke:none;" d="M198 225L199 226L198 225z"/>
<path style="fill:#0e9ef2; stroke:none;" d="M216 225L200 239L199 239L200 242L202 242L204 238L205 241L208 238L206 239L206 238L216 225z"/>
<path style="fill:#14ddf9; stroke:none;" d="M217 225L206 239L211 233L215 237L216 237L215 229C217.785 228.266 218.832 227.471 217 225z"/>
<path style="fill:#0e9ef2; stroke:none;" d="M218 225L219 226L218 225z"/>
<path style="fill:#175282; stroke:none;" d="M195 226L196 227L195 226z"/>
<path style="fill:#0e9ef2; stroke:none;" d="M219 226L220 227L219 226z"/>
<path style="fill:#126de5; stroke:none;" d="M193 227L194 228L193 227z"/>
<path style="fill:#0e9ef2; stroke:none;" d="M217 227L218 228L217 227z"/>
<path style="fill:#175282; stroke:none;" d="M219 227L220 228L219 227z"/>
<path style="fill:#0e9ef2; stroke:none;" d="M187 228L188 229L187 228M191 228L192 229L191 228M218 228L219 229L218 228z"/>
<path style="fill:#175282; stroke:none;" d="M186 229L187 230L186 229z"/>
<path style="fill:#0e9ef2; stroke:none;" d="M215.667 229.333L216.333 229.667L215.667 229.333z"/>
<path style="fill:#126de5; stroke:none;" d="M217 229L218 230L217 229z"/>
<path style="fill:#175282; stroke:none;" d="M190 230L191 231L190 230z"/>
<path style="fill:#126de5; stroke:none;" d="M216 230L217 231L216 230z"/>
<path style="fill:#175282; stroke:none;" d="M185 231L186 232L185 231z"/>
<path style="fill:#0e9ef2; stroke:none;" d="M189 231L190 232L189 231M215 231L216 232L215 231z"/>
<path style="fill:#126de5; stroke:none;" d="M216 232L217 233L216 232M351 232L349 233L349 234L351 232z"/>
<path style="fill:#0e9ef2; stroke:none;" d="M211.333 233.667L211.667 234.333L211.333 233.667M216 233L216 237L215 237L214 234L213 234C217.104 252.933 198.945 248.889 188 248L193 251C202.027 263.937 221.323 245.686 216 233z"/>
<path style="fill:#175282; stroke:none;" d="M184 234L185 235L184 234M188 234L189 235L188 234z"/>
<path style="fill:#126de5; stroke:none;" d="M212 234L213 235L212 234z"/>
<path style="fill:#0e9ef2; stroke:none;" d="M184.333 235.667L184.667 236.333L184.333 235.667z"/>
<path style="fill:#14ddf9; stroke:none;" d="M194 235C195.06 241.329 203.641 247.243 205 238L204 238L202 242L200 242L194 235z"/>
<path style="fill:#175282; stroke:none;" d="M196 235L197 236L196 235z"/>
<path style="fill:#126de5; stroke:none;" d="M211 235L212 236L211 235z"/>
<path style="fill:#175282; stroke:none;" d="M213 235L214 236L213 235z"/>
<path style="fill:#0e9ef2; stroke:none;" d="M193.333 236.667L193.667 237.333L193.333 236.667z"/>
<path style="fill:#175282; stroke:none;" d="M197 236L198 237L197 236z"/>
<path style="fill:#0e9ef2; stroke:none;" d="M209 236L210 237L209 236z"/>
<path style="fill:#126de5; stroke:none;" d="M210 236L211 237L210 236z"/>
<path style="fill:#175282; stroke:none;" d="M217 236L218 237L217 236z"/>
<path style="fill:#0e9ef2; stroke:none;" d="M231 237L231 239C238.717 241.281 247.982 240 256 240L303 240C309.284 240 321.997 242.55 326 237C306.997 232.476 283.528 236 264 236C253.631 236 240.963 234.055 231 237z"/>
<path style="fill:#126de5; stroke:none;" d="M324 236L325 237L324 236M359 242L356 242L356 244L340 242L340 246L339 246L339 243L338 243L338 248L337 244L324 259L322 258C315.5 267.081 305.817 273.984 298.093 282C278.913 301.905 258.907 321.075 239.835 341.09C231.902 349.414 237.462 365.617 227.606 371.972C224.003 374.295 217.112 373 213 373C200.923 373 178.735 377.261 169.044 368.772C162.189 362.767 164.277 355.703 162 348L161 348C160.209 354.261 158.762 361.177 162.09 366.999C167.005 375.601 175.194 376 184 376L229 376C226.672 379.926 222.303 388.105 230.044 389.458C233.762 390.107 237.507 386.889 241 385.959C246.281 384.554 251.601 381.52 257 380.793C260.043 380.384 262.952 381.84 265.985 381.053C269.686 380.094 272.163 376.895 276.015 376.225C290.484 373.705 307.305 376 322 376C328.052 376 335.322 377.094 340.999 374.633C351.763 369.966 352 360.086 352 350L352 315C352 310.125 350.896 303.63 352.603 299C355.921 290.002 367.283 285.61 371.542 277C374.154 271.72 369.022 267.594 370.906 263C372.736 258.536 378.19 256.326 378.442 251C378.719 245.16 371.4 237.829 366 236.617C362.178 235.759 357.608 237.941 359 242z"/>
<path style="fill:#175282; stroke:none;" d="M366 236L367 237L366 236M198 237L199 238L198 237z"/>
<path style="fill:#126de5; stroke:none;" d="M209 237L210 238L209 237M217.333 237.667L217.667 238.333L217.333 237.667z"/>
<path style="fill:#0e9ef2; stroke:none;" d="M359 239L360 242L365 240C364.18 236.192 361.841 237.429 359 239z"/>
<path style="fill:#175282; stroke:none;" d="M199 238L200 239L199 238z"/>
<path style="fill:#126de5; stroke:none;" d="M208 238L209 239L208 238M325 238L326 239L325 238z"/>
<path style="fill:#175282; stroke:none;" d="M358 238L359 239L358 238z"/>
<path style="fill:#0e9ef2; stroke:none;" d="M195 239L196 240L195 239z"/>
<path style="fill:#175282; stroke:none;" d="M200 239L201 240L200 239z"/>
<path style="fill:#126de5; stroke:none;" d="M207 239L208 240L207 239z"/>
<path style="fill:#175282; stroke:none;" d="M217.333 239.667L217.667 240.333L217.333 239.667M357 239L358 240L357 239z"/>
<path style="fill:#126de5; stroke:none;" d="M363 239L364 240L363 239z"/>
<path style="fill:#0e9ef2; stroke:none;" d="M184 240L185 241L184 240M196 240L197 241L196 240z"/>
<path style="fill:#14ddf9; stroke:none;" d="M200 240L201 241L200 240z"/>
<path style="fill:#126de5; stroke:none;" d="M206 240L207 241L206 240z"/>
<path style="fill:#175282; stroke:none;" d="M213 240L214 241L213 240M356 240L354 243L356 240z"/>
<path style="fill:#126de5; stroke:none;" d="M361 240L362 241L361 240z"/>
<path style="fill:#090a30; stroke:none;" d="M361.996 241.072C349.912 246.433 359.881 263.138 367.999 259.248C379.06 253.95 371.171 237.001 361.996 241.072z"/>
<path style="fill:#175282; stroke:none;" d="M366 240L367 241L366 240M184 241L185 242L184 241M188 241L189 242L188 241z"/>
<path style="fill:#0e9ef2; stroke:none;" d="M197 241L198 242L197 241z"/>
<path style="fill:#126de5; stroke:none;" d="M205 241L206 242L205 241z"/>
<path style="fill:#14ddf9; stroke:none;" d="M215 241L216 242L215 241z"/>
<path style="fill:#0e9ef2; stroke:none;" d="M356 241L357 243L358 243L359 241L356 241M188 242L189 243L188 242M198 242L199 243L198 242M203 242L204 243L203 242z"/>
<path style="fill:#126de5; stroke:none;" d="M204 242L205 243L204 242z"/>
<path style="fill:#175282; stroke:none;" d="M339 242L340 243L339 242M345 242L346 243L345 242z"/>
<path style="fill:#0e9ef2; stroke:none;" d="M355.333 242.667L355.667 243.333L355.333 242.667z"/>
<path style="fill:#175282; stroke:none;" d="M368 242L369 243L368 242z"/>
<path style="fill:#0e9ef2; stroke:none;" d="M199 243L200 244L199 243z"/>
<path style="fill:#126de5; stroke:none;" d="M203 243L204 244L203 243z"/>
<path style="fill:#175282; stroke:none;" d="M212 243L213 244L212 243M337 243L338 244L337 243z"/>
<path style="fill:#0e9ef2; stroke:none;" d="M339 243L339 246L340 246L339 243M341.667 243.333L342.333 243.667L341.667 243.333z"/>
<path style="fill:#175282; stroke:none;" d="M347 243L348 244L347 243M353 243L354 244L353 243z"/>
<path style="fill:#0e9ef2; stroke:none;" d="M358 243L359 244L358 243z"/>
<path style="fill:#175282; stroke:none;" d="M369 243L370 244L369 243M185 244L186 245L185 244z"/>
<path style="fill:#0e9ef2; stroke:none;" d="M189 244L190 245L189 244M200.667 244.333L201.333 244.667L200.667 244.333z"/>
<path style="fill:#126de5; stroke:none;" d="M202 244L203 245L202 244z"/>
<path style="fill:#0e9ef2; stroke:none;" d="M337 244L338 248L337 244z"/>
<path style="fill:#175282; stroke:none;" d="M348 244L349 245L348 244M352 244L353 245L352 244M370 244L371 245L370 244z"/>
<path style="fill:#126de5; stroke:none;" d="M211 245L212 246L211 245z"/>
<path style="fill:#175282; stroke:none;" d="M349 245L350 246L349 245M351 245L352 246L351 245M371 245L372 246L371 245M186 246L187 247L186 246z"/>
<path style="fill:#0e9ef2; stroke:none;" d="M190 246L191 247L190 246z"/>
<path style="fill:#175282; stroke:none;" d="M210 246L211 247L210 246z"/>
<path style="fill:#090a30; stroke:none;" d="M358 276C352.119 283.109 341.15 295.736 332 298.156C323.931 300.29 314.71 291.068 316.844 283C320.651 268.606 339.785 260.328 346 247C339.661 245.332 336.232 249.776 332 254L309 277L257 329C251.775 334.225 239.42 342.602 237.748 349.999C236.978 353.404 240.027 356.133 242.171 358.285C247.801 363.938 253.916 373.223 261.171 376.806C268.717 380.532 282.253 361.747 287 357L349 295C353.775 290.225 369.237 279.382 368.534 272C368.151 267.975 363.636 264.641 361 262C358.225 259.219 353.373 252.207 349.039 252.207C345.768 252.207 342.956 256.908 340.961 259C334.82 265.442 322.41 274.923 320.662 284C319.517 289.944 324.941 295.763 331 294.527C341.878 292.308 346.711 276.474 358 276z"/>
<path style="fill:#175282; stroke:none;" d="M377 246L378 247L377 246z"/>
<path style="fill:#0e9ef2; stroke:none;" d="M187 247L188 248L187 247M191 247L192 248L191 247z"/>
<path style="fill:#126de5; stroke:none;" d="M214 247L215 248L214 247z"/>
<path style="fill:#175282; stroke:none;" d="M333 247L334 248L333 247M373 247L374 248L373 247M208 248L209 249L208 248z"/>
<path style="fill:#0e9ef2; stroke:none;" d="M336 248L337 249L336 248z"/>
<path style="fill:#175282; stroke:none;" d="M374 248L375 249L374 248M378 248L379 249L378 248M188 249L189 250L188 249M331 249L332 250L331 249M353 249L354 250L353 249z"/>
<path style="fill:#14ddf9; stroke:none;" d="M193 250L194 251L193 250z"/>
<path style="fill:#175282; stroke:none;" d="M197 250L198 251L197 250M204 250L205 251L204 250z"/>
<path style="fill:#0e9ef2; stroke:none;" d="M334 250L335 251L334 250z"/>
<path style="fill:#175282; stroke:none;" d="M354 250L355 251L354 250z"/>
<path style="fill:#14ddf9; stroke:none;" d="M192 251L193 252L192 251M196 251L197 252L196 251z"/>
<path style="fill:#0e9ef2; stroke:none;" d="M330 251L328 254L330 251z"/>
<path style="fill:#175282; stroke:none;" d="M355 251L356 252L355 251M192 252L193 253L192 252M356 252L357 253L356 252M378 252L379 253L378 252M194 253L195 254L194 253M207 253L208 254L207 253M357 253L358 254L357 253M197 254L198 255L197 254z"/>
<path style="fill:#126de5; stroke:none;" d="M198 254L199 255L198 254M203 254L204 255L203 254z"/>
<path style="fill:#175282; stroke:none;" d="M204 254L205 255L204 254M358 254L359 255L358 254z"/>
<path style="fill:#0e9ef2; stroke:none;" d="M326 255L327 256L326 255z"/>
<path style="fill:#175282; stroke:none;" d="M344 255L345 256L344 255M359 255L360 256L359 255M324 256L325 257L324 256M338 256L339 257L338 256M343 256L344 257L343 256M360 256L361 257L360 256M376 256L377 257L376 256M323 257L324 258L323 257M337 257L338 258L337 257M342 257L343 258L342 257M361 257L362 258L361 257M375 257L376 258L375 257z"/>
<path style="fill:#0e9ef2; stroke:none;" d="M76 258L75 260L76 258z"/>
<path style="fill:#14ddf9; stroke:none;" d="M75 261L96 261L96 259C90.0004 257.227 79.6178 256.285 75 261z"/>
<path style="fill:#0e9ef2; stroke:none;" d="M323 258L324 259L323 258z"/>
<path style="fill:#175282; stroke:none;" d="M336 258L337 259L336 258M362 258L363 259L362 258M374 258L375 259L374 258z"/>
<path style="fill:#126de5; stroke:none;" d="M416 259L416 261L437 261L437 259L416 259z"/>
<path style="fill:#175282; stroke:none;" d="M321 259L322 260L321 259M363 259L364 260L363 259M373 259L374 260L373 259M320 260L321 261L320 260M364 260L365 261L364 260M372 260L373 261L372 260M95 261L96 262L95 261M319 261L320 262L319 261M365 261L366 262L365 261M371 261L372 262L371 261M318 262L319 263L318 262M370 262L371 263L370 262M369 263L370 264L369 263M316 264L317 265L316 264M369 265L370 266L369 265M314 266L315 267L314 266M319 266L320 267L319 266M370 266L371 267L370 266z"/>
<path style="fill:#0e9ef2; stroke:none;" d="M161 267L160 297L160 352L161 352L161 348L163 349L163 267L161 267z"/>
<path style="fill:#175282; stroke:none;" d="M328 267L329 268L328 267z"/>
<path style="fill:#0e9ef2; stroke:none;" d="M329 267L330 268L329 267z"/>
<path style="fill:#175282; stroke:none;" d="M333 267L334 268L333 267M371 267L372 268L371 267M312 268L313 269L312 268M317 268L318 269L317 268M327 268L328 269L327 268M332 268L333 269L332 268M367 268L368 269L367 268M326 269L327 270L326 269M372 269L373 270L372 269M315 270L316 271L315 270M308 272L309 273L308 272z"/>
<path style="fill:#0e9ef2; stroke:none;" d="M196 273.649C175.289 279.898 185.823 311.517 206 305.196C225.95 298.946 216.092 267.587 196 273.649z"/>
<path style="fill:#126de5; stroke:none;" d="M205 273L206 274L205 273z"/>
<path style="fill:#175282; stroke:none;" d="M193 274L194 275L193 274M208 274L209 275L208 274M306 274L307 275L306 274M191 275L192 276L191 275M372 275L373 276L372 275z"/>
<path style="fill:#126de5; stroke:none;" d="M190 276L191 277L190 276M199 276L200 277L199 276z"/>
<path style="fill:#175282; stroke:none;" d="M200.667 276.333L201.333 276.667L200.667 276.333z"/>
<path style="fill:#126de5; stroke:none;" d="M202 276L203 277L202 276z"/>
<path style="fill:#175282; stroke:none;" d="M211 276L212 277L211 276M304 276L305 277L304 276M357 276L358 277L357 276M367 276L368 277L367 276z"/>
<path style="fill:#090a30; stroke:none;" d="M196.004 277.742C180.49 283.744 190.748 307.245 205.996 300.991C221.109 294.792 211.099 271.902 196.004 277.742z"/>
<path style="fill:#175282; stroke:none;" d="M205 277L206 278L205 277M212 277L213 278L212 277M366 277L367 278L366 277M371 277L372 278L371 277M213 278L214 279L213 278M318 278L319 279L318 278M323 278L324 279L323 278M356 278L357 279L356 278M365 278L366 279L365 278M187 279L188 280L187 279z"/>
<path style="fill:#126de5; stroke:none;" d="M192 279L193 280L192 279z"/>
<path style="fill:#175282; stroke:none;" d="M322 279L323 280L322 279M355 279L356 280L355 279M364 279L365 280L364 279M191 280L192 281L191 280M317 280L318 281L317 280M363 280L364 281L363 280z"/>
<path style="fill:#126de5; stroke:none;" d="M190 281L191 282L190 281z"/>
<path style="fill:#175282; stroke:none;" d="M215 281L216 282L215 281M347 281L348 282L347 281M362 281L363 282L362 281M346 282L347 283L346 282M361 282L362 283L361 282M189 283L190 284L189 283z"/>
<path style="fill:#126de5; stroke:none;" d="M212 283L213 284L212 283z"/>
<path style="fill:#175282; stroke:none;" d="M216 283L217 284L216 283M316 283L316 288L317 288L316 283M320 283L321 284L320 283M345 283L346 284L345 283M360 283L361 284L360 283M359 284L360 285L359 284M188 285L189 286L188 285M358 285L359 286L358 285M184 286L185 287L184 286M213 286L214 287L213 286M294 286L295 287L294 286M299 286L300 287L299 286M357 286L358 287L357 286M217.333 287.667L217.667 288.333L217.333 287.667M231 288L231 289L276 288C266.25 283.909 241.123 285.008 231 288M298 287L299 288L298 287M320.333 287.667L320.667 288.333L320.333 287.667M346 287L347 288L346 287M356 287L357 288L356 287z"/>
<path style="fill:#0e9ef2; stroke:none;" d="M232 288L232 291L267 290C259.732 284.494 241.019 288 232 288z"/>
<path style="fill:#126de5; stroke:none;" d="M266 288L267 290L262 290L262 291L277 291L277 288L266 288z"/>
<path style="fill:#175282; stroke:none;" d="M292 288L293 289L292 288M297 288L298 289L297 288M345 288L346 289L345 288M355 288L356 289L355 288z"/>
<path style="fill:#126de5; stroke:none;" d="M217.333 289.667L217.667 290.333L217.333 289.667M231 289L232 290L231 289z"/>
<path style="fill:#175282; stroke:none;" d="M291 289L292 290L291 289M296 289L297 290L296 289M344 289L345 290L344 289M354 289L355 290L354 289M231 290L232 291L231 290M290 290L291 291L290 290M321 290L322 291L321 290M353 290L354 291L353 290M213.333 291.667L213.667 292.333L213.333 291.667M217 291L218 292L217 291M336 291L337 292L336 291M352 291L353 292L352 291M184 292L185 293L184 292M288 292L289 293L288 292M318 292L319 293L318 292M335 292L336 293L335 292M351 292L352 293L351 292z"/>
<path style="fill:#126de5; stroke:none;" d="M188 293L189 294L188 293z"/>
<path style="fill:#175282; stroke:none;" d="M324 293L325 294L324 293M350 293L351 294L350 293M286 294L287 295L286 294M349 294L350 295L349 294z"/>
<path style="fill:#126de5; stroke:none;" d="M185 295L186 296L185 295z"/>
<path style="fill:#175282; stroke:none;" d="M189 295L190 296L189 295z"/>
<path style="fill:#126de5; stroke:none;" d="M212 295L213 296L212 295z"/>
<path style="fill:#175282; stroke:none;" d="M216 295L217 296L216 295M285 295L286 296L285 295M348 295L349 296L348 295M322 296L323 297L322 296M336 296L337 297L336 296M347 296L348 297L347 296z"/>
<path style="fill:#126de5; stroke:none;" d="M186 297L187 298L186 297z"/>
<path style="fill:#175282; stroke:none;" d="M215 297L216 298L215 297M324 297L325 298L324 297M334 297L335 298L334 297M346 297L347 298L346 297M352 297L352 359L353 359L353 317L352 297z"/>
<path style="fill:#126de5; stroke:none;" d="M191 298L192 299L191 298z"/>
<path style="fill:#175282; stroke:none;" d="M282 298L283 299L282 298M287 298L288 299L287 298M327 298L327 299L332 299L327 298M345 298L346 299L345 298M187 299L188 300L187 299z"/>
<path style="fill:#126de5; stroke:none;" d="M192 299L193 300L192 299z"/>
<path style="fill:#175282; stroke:none;" d="M286 299L287 300L286 299M344 299L345 300L344 299z"/>
<path style="fill:#126de5; stroke:none;" d="M188 300L189 301L188 300z"/>
<path style="fill:#175282; stroke:none;" d="M207 300L208 301L207 300M280 300L281 301L280 300M343 300L344 301L343 300z"/>
<path style="fill:#126de5; stroke:none;" d="M189 301L190 302L189 301z"/>
<path style="fill:#175282; stroke:none;" d="M196 301L197 302L196 301M205 301L206 302L205 301M212 301L213 302L212 301M279 301L280 302L279 301M284 301L285 302L284 301M342 301L343 302L342 301z"/>
<path style="fill:#090a30; stroke:none;" d="M348 301C325.386 323.614 296.398 345.881 278 372L321 372C327.068 372 335.406 373.441 340.996 370.682C345.945 368.24 348.253 363.254 348.826 358C350.215 345.278 349 331.797 349 319C349 313.381 350.189 306.217 348 301z"/>
<path style="fill:#175282; stroke:none;" d="M190 302L191 303L190 302z"/>
<path style="fill:#126de5; stroke:none;" d="M200.667 302.333L201.333 302.667L200.667 302.333z"/>
<path style="fill:#175282; stroke:none;" d="M278 302L279 303L278 302M341 302L342 303L341 302M340 303L341 304L340 303M276 304L277 305L276 304M339 304L340 305L339 304M196 305L197 306L196 305M205 305L206 306L205 305M275 305L276 306L275 305M338 305L339 306L338 305M337 306L338 307L337 306M273 307L274 308L273 307M278 307L279 308L278 307M336 307L337 308L336 307M335 308L336 309L335 308M271 309L272 310L271 309M276 309L277 310L276 309M334 309L335 310L334 309M333 310L334 311L333 310M269 311L270 312L269 311M274 311L275 312L274 311M332 311L333 312L332 311M268 312L269 313L268 312M331 312L332 313L331 312M267 313L268 314L267 313M272 313L273 314L272 313M330 313L331 314L330 313M266 314L267 315L266 314M329 314L330 315L329 314M265 315L266 316L265 315M270 315L271 316L270 315M328 315L329 316L328 315M327 316L328 317L327 316M263 317L264 318L263 317M268 317L269 318L268 317M326 317L327 318L326 317M331 317L332 318L331 317M325 318L326 319L325 318M330 318L331 319L330 318M261 319L262 320L261 319M266 319L267 320L266 319M324 319L325 320L324 319M260 320L261 321L260 320M323 320L324 321L323 320M259 321L260 322L259 321M322 321L323 322L322 321z"/>
<path style="fill:#126de5; stroke:none;" d="M409 321L408 324L419 328C417.521 323.419 413.275 322.447 409 321z"/>
<path style="fill:#175282; stroke:none;" d="M410 321L411 322L410 321M102 322L102 323L105 324L102 322M258 322L259 323L258 322M321 322L322 323L321 322M99 323L100 324L99 323z"/>
<path style="fill:#0e9ef2; stroke:none;" d="M93 329C97.618 328.594 102.369 327.761 104 323C99.2686 323.475 95.3261 324.665 93 329z"/>
<path style="fill:#175282; stroke:none;" d="M257 323L258 324L257 323M320 323L321 324L320 323M415 323L416 324L415 323M97 324L98 325L97 324z"/>
<path style="fill:#126de5; stroke:none;" d="M104 324L105 325L104 324z"/>
<path style="fill:#175282; stroke:none;" d="M197 324L198 325L197 324z"/>
<path style="fill:#126de5; stroke:none;" d="M198 324L198 325L203 326L203 327L197 327L197 328C210.527 328.121 221.474 344.434 205.985 352.311C198.204 356.269 188.404 349.493 188.195 341C188.07 335.899 191.206 332.826 194 329L190 332L195 326C187.72 326.459 183.404 336.507 184.483 343C185.96 351.892 193.148 357.354 202 356.953C213.901 356.413 221.284 342.275 214.991 332.015C211.294 325.989 204.629 324.141 198 324z"/>
<path style="fill:#175282; stroke:none;" d="M204 324L205 325L204 324M256 324L257 325L256 324M319 324L320 325L319 324z"/>
<path style="fill:#0e9ef2; stroke:none;" d="M190 332L203 327C198.237 323.397 190.908 325.949 190 332z"/>
<path style="fill:#175282; stroke:none;" d="M207 325L208 326L207 325M255 325L256 326L255 325M318 325L319 326L318 325z"/>
<path style="fill:#126de5; stroke:none;" d="M93 326L94 327L93 326z"/>
<path style="fill:#175282; stroke:none;" d="M102 326L103 327L102 326M209 326L210 327L209 326M254 326L255 327L254 326M259 326L260 327L259 326M317 326L318 327L317 326M413 326L414 327L413 326M419 326L420 327L419 326M253 327L254 328L253 327M258 327L259 328L258 327M316 327L317 328L316 327M97 328L98 329L97 328M189 328L190 329L189 328z"/>
<path style="fill:#126de5; stroke:none;" d="M195 328L196 329L195 328z"/>
<path style="fill:#175282; stroke:none;" d="M196 328L197 329L196 328z"/>
<path style="fill:#090a30; stroke:none;" d="M197.001 328.653C181.018 333.663 189.564 358.056 204.999 352.721C220.42 347.391 212.531 323.784 197.001 328.653z"/>
<path style="fill:#175282; stroke:none;" d="M252 328L253 329L252 328M257 328L258 329L257 328M315 328L316 329L315 328M94.6667 329.333L95.3333 329.667L94.6667 329.333M188 329L189 330L188 329M194 329L195 330L194 329M251 329L252 330L251 329M256 329L257 330L256 329M314 329L315 330L314 329M319 329L320 330L319 329M250 330L251 331L250 330M255 330L256 331L255 330M313 330L314 331L313 330z"/>
<path style="fill:#0e9ef2; stroke:none;" d="M188 331L187 333L189 333L188 331z"/>
<path style="fill:#175282; stroke:none;" d="M249 331L250 332L249 331M254 331L255 332L254 331M312 331L313 332L312 331M248 332L249 333L248 332M253 332L254 333L253 332M311 332L312 333L311 332z"/>
<path style="fill:#0e9ef2; stroke:none;" d="M189 333L190 334L189 333z"/>
<path style="fill:#175282; stroke:none;" d="M211 333L212 334L211 333M247 333L248 334L247 333M310 333L311 334L310 333M185 334L186 335L185 334M189 334L190 335L189 334M246 334L247 335L246 334M309 334L310 335L309 334M245 335L246 336L245 335M308 335L309 336L308 335z"/>
<path style="fill:#0e9ef2; stroke:none;" d="M186 336L187 337L186 336z"/>
<path style="fill:#175282; stroke:none;" d="M244 336L245 337L244 336M307 336L308 337L307 336M184 337L185 338L184 337M243 337L244 338L243 337M306 337L307 338L306 337M311 337L312 338L311 337M213 338L214 339L213 338M247 338L248 339L247 338M305 338L306 339L305 338M310 338L311 339L310 338M217 339L217 343L218 343L217 339M241 339L242 340L241 339M246 339L247 340L246 339M304 339L305 340L304 339M309 339L310 340L309 339M240 340L241 341L240 340M245 340L246 341L245 340M303 340L304 341L303 340M239 341L240 342L239 341M244 341L245 342L244 341M302 341L303 342L302 341M307 341L308 342L307 341M238 342L239 343L238 342M243 342L244 343L243 342M301 342L302 343L301 342M306 342L307 343L306 342M184 343L185 344L184 343M213 343L214 344L213 343M237 343L238 344L237 343M242 343L243 344L242 343M300 343L301 344L300 343M305 343L306 344L305 343M188 344L189 345L188 344M236 344L237 345L236 344M241 344L242 345L241 344M299 344L300 345L299 344M235 345L236 346L235 345M298 345L299 346L298 345M212 346L213 347L212 346M216 346L217 347L216 346M297 346L298 347L297 346M302 346L303 347L302 346M238 347L239 348L238 347M296 347L297 348L296 347M301 347L302 348L301 347M190 348L191 349L190 348M215 348L216 349L215 348M295 348L296 349L295 348M191 349L192 350L191 349M210 349L211 350L210 349M233 349L234 350L233 349M294 349L295 350L294 349M187 350L188 351L187 350M192 350L193 351L192 350M209 350L210 351L209 350M214 350L215 351L214 350M293 350L294 351L293 350M298 350L299 351L298 350M213 351L214 352L213 351M292 351L293 352L292 351M297 351L298 352L297 351M195 352L196 353L195 352M206 352L207 353L206 352M233 352L234 353L233 352M291 352L292 353L291 352M296 352L297 353L296 352M198.667 353.333L199.333 353.667L198.667 353.333M202.667 353.333L203.333 353.667L202.667 353.333M211 353L212 354L211 353M290 353L291 354L290 353M295 353L296 354L295 353M191 354L192 355L191 354M238 354L239 355L238 354M289 354L290 355L289 354M294 354L295 355L294 354M208 355L209 356L208 355M234 355L235 356L234 355M239 355L240 356L239 355M288 355L289 356L288 355M293 355L294 356L293 355M195 356L196 357L195 356M206 356L207 357L206 356M287 356L288 357L287 356M241 357L242 358L241 357M286 357L287 358L286 357M234 358L235 359L234 358M242 358L243 359L242 358M285 358L286 359L285 358M290 358L291 359L290 358M243 359L244 360L243 359M284 359L285 360L284 359M289 359L290 360L289 359M163 360L164 361L163 360z"/>
<path style="fill:#090a30; stroke:none;" d="M238 360C229.776 377.585 237.444 385.212 255 377L238 360z"/>
<path style="fill:#175282; stroke:none;" d="M244 360L245 361L244 360M283 360L284 361L283 360M288 360L289 361L288 360M348.333 360.667L348.667 361.333L348.333 360.667M245 361L246 362L245 361M282 361L283 362L282 361M287 361L288 362L287 361M246 362L247 363L246 362M281 362L282 363L281 362M286 362L287 363L286 362M160 363L161 364L160 363M232 363L233 364L232 363M236 363L237 364L236 363M247 363L248 364L247 363M280 363L281 364L280 363M285 363L286 364L285 363M351 363L352 364L351 363M279 364L280 365L279 364M165 365L166 366L165 365M249 365L250 366L249 365M278 365L279 366L278 365M277 366L278 367L277 366M276 367L277 368L276 367M349 367L350 368L349 367M234 368L235 369L234 368M275 368L276 369L275 368M348 368L349 369L348 368M163 369L164 370L163 369M274 369L275 370L274 369M343 369L344 370L343 369M164 370L165 371L164 370M170 370L171 371L170 370M254 370L255 371L254 370M273 370L274 371L273 370M278 370L279 371L278 370M347 370L348 371L347 370M165 371L166 372L165 371M172 371L173 372L172 371M233 371L234 372L233 371M272 371L273 372L272 371M277 371L293 373L337 373L337 372C318.079 372 295.414 375.384 277 371M339 371L340 372L339 371M346 371L347 372L346 371M176 372L176 373L229 373L212 372L176 372M256 372L257 373L256 372M271 372L272 373L271 372M232 373L232 376L233 376L232 373M257 373L258 374L257 373M270 373L271 374L270 373M343 373L344 374L343 373M258 374L259 375L258 374M269 374L270 375L269 374M341 374L342 375L341 374M172 375L173 376L172 375M268 375L269 376L268 375M339 375L340 376L339 375M372 378L373 378L375 376L372 378z"/>
<path style="fill:#126de5; stroke:none;" d="M131 385L132 386L141 377L140 376L131 385z"/>
<path style="fill:#175282; stroke:none;" d="M267 376L268 377L267 376z"/>
<path style="fill:#126de5; stroke:none;" d="M373 376L381 385C380.029 380.192 377.764 377.349 373 376z"/>
<path style="fill:#175282; stroke:none;" d="M254 377L255 378L254 377M261 377L262 378L261 377M271 377L272 378L271 377M251 378L252 379L251 378M269 379L270 380L269 379z"/>
<path style="fill:#090a30; stroke:none;" d="M231 380C228.947 384.331 230.669 386.053 235 384L235 383L231 380z"/>
<path style="fill:#175282; stroke:none;" d="M246 380L247 381L246 380M256 380L257 381L256 380M259 380L260 381L259 380M225 381L226 382L225 381M238 381L239 382L238 381M262 381L263 382L262 381M265 381L266 382L265 381M380 381L381 382L380 381M239 382L239 383L242 383L239 382M251 382L252 383L251 382M381.333 382.667L381.667 383.333L381.333 382.667M248 383L249 384L248 383M246 384L247 385L246 384M379 384L380 385L379 384M229 385L230 386L229 385M243 385L244 386L243 385M233 389L234 390L233 389M320 411L322 413L320 411z"/>
<path style="fill:#126de5; stroke:none;" d="M192 412L188 423C192.68 421.527 193.782 417.45 195 413L194 412L192 412M319 412C319.453 416.423 320.52 420.469 325 422L321 412L319 412z"/>
<path style="fill:#175282; stroke:none;" d="M318 413L319 414L318 413M322 414L323 415L322 414M194 415L195 416L194 415M319 416L320 417L319 416M323 416L324 417L323 416M189 417L190 418L189 417M193 417L194 418L193 417M320 418L321 419L320 418z"/>
<path style="fill:#126de5; stroke:none;" d="M255 420L254 440L258 440L257 420L255 420z"/>
<path style="fill:#175282; stroke:none;" d="M321 420L322 421L321 420M191 422L192 423L191 422M322 422L322 423L325 423L322 422M189.667 423.333L190.333 423.667L189.667 423.333M255.667 440.333L256.333 440.667L255.667 440.333z"/>
</svg>
